<svg xmlns="http://www.w3.org/2000/svg" style="display:none">

  <!-- Dashboard / Home -->
  <symbol id="icon-home" viewBox="0 0 24 24" fill="none">
    <path d="M3 9l9-7 9 7v11a2 2 0 01-2 2H5a2 2 0 01-2-2z" stroke="currentColor" stroke-width="1.7" stroke-linecap="round" stroke-linejoin="round"/>
    <polyline points="9 22 9 12 15 12 15 22" stroke="currentColor" stroke-width="1.7" stroke-linecap="round" stroke-linejoin="round"/>
  </symbol>

  <!-- Deposit / Money In -->
  <symbol id="icon-deposit" viewBox="0 0 24 24" fill="none">
    <path d="M12 2v20M17 7H9.5a2.5 2.5 0 000 5h5a2.5 2.5 0 010 5H7" stroke="currentColor" stroke-width="1.7" stroke-linecap="round"/>
  </symbol>

  <!-- Withdraw / Money Out -->
  <symbol id="icon-withdraw" viewBox="0 0 24 24" fill="none">
    <rect x="2" y="7" width="20" height="14" rx="2" stroke="currentColor" stroke-width="1.7"/>
    <path d="M16 3H8M12 3v4" stroke="currentColor" stroke-width="1.7" stroke-linecap="round"/>
    <path d="M12 12v5M9 14l3 3 3-3" stroke="currentColor" stroke-width="1.7" stroke-linecap="round"/>
  </symbol>

  <!-- Mining / Pick -->
  <symbol id="icon-mining" viewBox="0 0 24 24" fill="none">
    <path d="M3 21l4-4 4.5-4.5M17 3l4 4-11 11-4-4 11-11z" stroke="currentColor" stroke-width="1.7" stroke-linecap="round" stroke-linejoin="round"/>
    <circle cx="5" cy="19" r="1.5" fill="currentColor"/>
  </symbol>

  <!-- Package / Box -->
  <symbol id="icon-package" viewBox="0 0 24 24" fill="none">
    <path d="M3 9l9-5 9 5v6l-9 5-9-5V9z" stroke="currentColor" stroke-width="1.7" stroke-linejoin="round"/>
    <path d="M12 4v16M3 9l9 5 9-5" stroke="currentColor" stroke-width="1.7" stroke-linejoin="round"/>
  </symbol>

  <!-- Referral / Share -->
  <symbol id="icon-referral" viewBox="0 0 24 24" fill="none">
    <circle cx="17" cy="5" r="3" stroke="currentColor" stroke-width="1.7"/>
    <circle cx="7" cy="12" r="3" stroke="currentColor" stroke-width="1.7"/>
    <circle cx="17" cy="19" r="3" stroke="currentColor" stroke-width="1.7"/>
    <path d="M10 12h4M14 6.4l-4 3.6M14 17.6l-4-3.6" stroke="currentColor" stroke-width="1.7" stroke-linecap="round"/>
  </symbol>

  <!-- Gift / Daily Reward -->
  <symbol id="icon-gift" viewBox="0 0 24 24" fill="none">
    <path d="M20 12v10H4V12M22 7H2v5h20V7z" stroke="currentColor" stroke-width="1.7" stroke-linecap="round" stroke-linejoin="round"/>
    <path d="M12 22V7M12 7H7.5a2.5 2.5 0 010-5C11 2 12 7 12 7M12 7h4.5a2.5 2.5 0 000-5C13 2 12 7 12 7" stroke="currentColor" stroke-width="1.7" stroke-linecap="round"/>
  </symbol>

  <!-- Mission / Checklist -->
  <symbol id="icon-mission" viewBox="0 0 24 24" fill="none">
    <path d="M9 11l3 3L22 4M21 12v7a2 2 0 01-2 2H5a2 2 0 01-2-2V5a2 2 0 012-2h11" stroke="currentColor" stroke-width="1.7" stroke-linecap="round" stroke-linejoin="round"/>
  </symbol>

  <!-- Trophy / Leaderboard -->
  <symbol id="icon-trophy" viewBox="0 0 24 24" fill="none">
    <path d="M8 21h8M12 17v4M17 3H7v8a5 5 0 0010 0V3z" stroke="currentColor" stroke-width="1.7" stroke-linecap="round" stroke-linejoin="round"/>
    <path d="M17 5h3v3a3 3 0 01-3 3M7 5H4v3a3 3 0 003 3" stroke="currentColor" stroke-width="1.7" stroke-linecap="round"/>
  </symbol>

  <!-- Calendar -->
  <symbol id="icon-calendar" viewBox="0 0 24 24" fill="none">
    <rect x="3" y="4" width="18" height="18" rx="2" stroke="currentColor" stroke-width="1.7"/>
    <path d="M16 2v4M8 2v4M3 10h18" stroke="currentColor" stroke-width="1.7" stroke-linecap="round"/>
  </symbol>

  <!-- VIP / Star -->
  <symbol id="icon-vip" viewBox="0 0 24 24" fill="none">
    <path d="M12 2l3.09 6.26L22 9.27l-5 4.87 1.18 6.88L12 17.77l-6.18 3.25L7 14.14 2 9.27l6.91-1.01L12 2z" stroke="currentColor" stroke-width="1.7" stroke-linejoin="round"/>
  </symbol>

  <!-- Voucher / Ticket -->
  <symbol id="icon-voucher" viewBox="0 0 24 24" fill="none">
    <path d="M20 5H4a2 2 0 00-2 2v2a2 2 0 000 4v2a2 2 0 002 2h16a2 2 0 002-2v-2a2 2 0 000-4V7a2 2 0 00-2-2z" stroke="currentColor" stroke-width="1.7"/>
    <path d="M9 5v14M12 9h3M12 12h3M12 15h3" stroke="currentColor" stroke-width="1.7" stroke-linecap="round"/>
  </symbol>

  <!-- History / Clock -->
  <symbol id="icon-history" viewBox="0 0 24 24" fill="none">
    <path d="M3 12a9 9 0 1018 0A9 9 0 003 12z" stroke="currentColor" stroke-width="1.7"/>
    <path d="M12 7v5l3 3" stroke="currentColor" stroke-width="1.7" stroke-linecap="round"/>
  </symbol>

  <!-- Bell / Notification -->
  <symbol id="icon-bell" viewBox="0 0 24 24" fill="none">
    <path d="M12 2a7 7 0 00-7 7v6l-2 2v1h18v-1l-2-2V9a7 7 0 00-7-7z" stroke="currentColor" stroke-width="1.7"/>
    <path d="M10 19c0 1.1.9 2 2 2s2-.9 2-2" stroke="currentColor" stroke-width="1.7"/>
  </symbol>

  <!-- Chat / Message -->
  <symbol id="icon-chat" viewBox="0 0 24 24" fill="none">
    <path d="M4 4h16c1.1 0 2 .9 2 2v10c0 1.1-.9 2-2 2H6l-4 4V6c0-1.1.9-2 2-2z" stroke="currentColor" stroke-width="1.7" stroke-linejoin="round"/>
  </symbol>

  <!-- User / Profile -->
  <symbol id="icon-user" viewBox="0 0 24 24" fill="none">
    <circle cx="12" cy="8" r="4" stroke="currentColor" stroke-width="1.7"/>
    <path d="M4 20c0-4 3.6-7 8-7s8 3 8 7" stroke="currentColor" stroke-width="1.7" stroke-linecap="round"/>
  </symbol>

  <!-- Shield / Security -->
  <symbol id="icon-security" viewBox="0 0 24 24" fill="none">
    <path d="M12 22s8-4 8-10V5l-8-3-8 3v7c0 6 8 10 8 10z" stroke="currentColor" stroke-width="1.7" stroke-linejoin="round"/>
    <path d="M9 12l2 2 4-4" stroke="currentColor" stroke-width="1.7" stroke-linecap="round"/>
  </symbol>

  <!-- Bank / Card -->
  <symbol id="icon-bank" viewBox="0 0 24 24" fill="none">
    <rect x="2" y="7" width="20" height="14" rx="2" stroke="currentColor" stroke-width="1.7"/>
    <path d="M16 3H8M2 11h20" stroke="currentColor" stroke-width="1.7" stroke-linecap="round"/>
    <circle cx="7" cy="16" r="1.5" fill="currentColor"/>
  </symbol>

  <!-- FAQ / Question -->
  <symbol id="icon-faq" viewBox="0 0 24 24" fill="none">
    <circle cx="12" cy="12" r="10" stroke="currentColor" stroke-width="1.7"/>
    <path d="M9.09 9a3 3 0 015.83 1c0 2-3 3-3 3" stroke="currentColor" stroke-width="1.7" stroke-linecap="round"/>
    <circle cx="12" cy="17" r=".5" fill="currentColor" stroke="currentColor" stroke-width="1"/>
  </symbol>

  <!-- Info -->
  <symbol id="icon-info" viewBox="0 0 24 24" fill="none">
    <circle cx="12" cy="12" r="10" stroke="currentColor" stroke-width="1.7"/>
    <line x1="12" y1="8" x2="12.01" y2="8" stroke="currentColor" stroke-width="2" stroke-linecap="round"/>
    <line x1="12" y1="12" x2="12" y2="16" stroke="currentColor" stroke-width="1.7" stroke-linecap="round"/>
  </symbol>

  <!-- Contact / Phone -->
  <symbol id="icon-contact" viewBox="0 0 24 24" fill="none">
    <path d="M22 16.92v3a2 2 0 01-2.18 2 19.79 19.79 0 01-8.63-3.07A19.5 19.5 0 013.95 9.5a19.79 19.79 0 01-3.07-8.67A2 2 0 012.85 2h3a2 2 0 012 1.72 12.84 12.84 0 00.7 2.81 2 2 0 01-.45 2.11L7.09 9.91A16 16 0 0013 15.8l1.27-1.27a2 2 0 012.11-.45 12.84 12.84 0 002.81.7A2 2 0 0122 16.92z" stroke="currentColor" stroke-width="1.7" stroke-linejoin="round"/>
  </symbol>

  <!-- Logout -->
  <symbol id="icon-logout" viewBox="0 0 24 24" fill="none">
    <path d="M9 21H5a2 2 0 01-2-2V5a2 2 0 012-2h4M16 17l5-5-5-5M21 12H9" stroke="currentColor" stroke-width="1.7" stroke-linecap="round" stroke-linejoin="round"/>
  </symbol>

  <!-- Settings / Gear -->
  <symbol id="icon-settings" viewBox="0 0 24 24" fill="none">
    <circle cx="12" cy="12" r="3" stroke="currentColor" stroke-width="1.7"/>
    <path d="M19.4 15a1.65 1.65 0 00.33 1.82l.06.06a2 2 0 010 2.83 2 2 0 01-2.83 0l-.06-.06a1.65 1.65 0 00-1.82-.33 1.65 1.65 0 00-1 1.51V21a2 2 0 01-4 0v-.09A1.65 1.65 0 009 19.4a1.65 1.65 0 00-1.82.33l-.06.06a2 2 0 01-2.83-2.83l.06-.06A1.65 1.65 0 004.68 15a1.65 1.65 0 00-1.51-1H3a2 2 0 010-4h.09A1.65 1.65 0 004.6 9a1.65 1.65 0 00-.33-1.82l-.06-.06a2 2 0 012.83-2.83l.06.06A1.65 1.65 0 009 4.68a1.65 1.65 0 001-1.51V3a2 2 0 014 0v.09a1.65 1.65 0 001 1.51 1.65 1.65 0 001.82-.33l.06-.06a2 2 0 012.83 2.83l-.06.06A1.65 1.65 0 0019.4 9a1.65 1.65 0 001.51 1H21a2 2 0 010 4h-.09a1.65 1.65 0 00-1.51 1z" stroke="currentColor" stroke-width="1.7"/>
  </symbol>

  <!-- Ads / Play -->
  <symbol id="icon-ads" viewBox="0 0 24 24" fill="none">
    <circle cx="12" cy="12" r="10" stroke="currentColor" stroke-width="1.7"/>
    <polygon points="10 8 16 12 10 16 10 8" stroke="currentColor" stroke-width="1.7" stroke-linejoin="round"/>
  </symbol>

  <!-- Chart / Reports -->
  <symbol id="icon-chart" viewBox="0 0 24 24" fill="none">
    <polyline points="22 12 18 12 15 21 9 3 6 12 2 12" stroke="currentColor" stroke-width="1.7" stroke-linecap="round" stroke-linejoin="round"/>
  </symbol>

  <!-- Members / Users -->
  <symbol id="icon-members" viewBox="0 0 24 24" fill="none">
    <path d="M17 21v-2a4 4 0 00-4-4H5a4 4 0 00-4 4v2" stroke="currentColor" stroke-width="1.7" stroke-linecap="round"/>
    <circle cx="9" cy="7" r="4" stroke="currentColor" stroke-width="1.7"/>
    <path d="M23 21v-2a4 4 0 00-3-3.87M16 3.13a4 4 0 010 7.75" stroke="currentColor" stroke-width="1.7" stroke-linecap="round"/>
  </symbol>

  <!-- Wallet -->
  <symbol id="icon-wallet" viewBox="0 0 24 24" fill="none">
    <path d="M20 7H4a2 2 0 00-2 2v10a2 2 0 002 2h16a2 2 0 002-2V9a2 2 0 00-2-2z" stroke="currentColor" stroke-width="1.7"/>
    <path d="M16 7V5a2 2 0 00-2-2H6a2 2 0 00-2 2v2" stroke="currentColor" stroke-width="1.7"/>
    <circle cx="17" cy="13" r="1.5" fill="currentColor"/>
  </symbol>

  <!-- Banner / Image -->
  <symbol id="icon-banner" viewBox="0 0 24 24" fill="none">
    <rect x="3" y="3" width="18" height="18" rx="2" stroke="currentColor" stroke-width="1.7"/>
    <circle cx="8.5" cy="8.5" r="1.5" stroke="currentColor" stroke-width="1.7"/>
    <polyline points="21 15 16 10 5 21" stroke="currentColor" stroke-width="1.7" stroke-linecap="round" stroke-linejoin="round"/>
  </symbol>

</svg>
